HIERARCHY
ROOT Model
{
	OFFSET 0 0 0
	CHANNELS 6 Xposition Yposition Zposition Zrotation Xrotation Yrotation
	JOINT Model1
	{
		OFFSET 0 -2.25479 2.99383
		CHANNELS 3 Zrotation Xrotation Yrotation
		JOINT Model2
		{
			OFFSET 12.111 0 0
			CHANNELS 3 Zrotation Xrotation Yrotation
			JOINT Model3
			{
				OFFSET 11.5502 0 0
				CHANNELS 3 Zrotation Xrotation Yrotation
				JOINT Model4
				{
					OFFSET 11.781 0 0
					CHANNELS 3 Zrotation Xrotation Yrotation
					JOINT Model5
					{
						OFFSET 20.0601 0 0
						CHANNELS 3 Zrotation Xrotation Yrotation
						JOINT Model6
						{
							OFFSET 11.1962 0 0
							CHANNELS 3 Zrotation Xrotation Yrotation
							End Site
							{
								OFFSET 0 0 0
							}
						}
					}
					JOINT Model7
					{
						OFFSET 10.8223 0.417538 3.51114
						CHANNELS 3 Zrotation Xrotation Yrotation
						JOINT Model8
						{
							OFFSET -6.07944 0 0
							CHANNELS 3 Zrotation Xrotation Yrotation
							JOINT Model9
							{
								OFFSET -0.27742 10.39 -0.0512447
								CHANNELS 3 Zrotation Xrotation Yrotation
								JOINT Model10
								{
									OFFSET -3.4391 -0.282043 1.86678
									CHANNELS 3 Zrotation Xrotation Yrotation
									JOINT Model11
									{
										OFFSET 13.0269 0 0
										CHANNELS 3 Zrotation Xrotation Yrotation
										JOINT Model12
										{
											OFFSET 10.8866 0 0
											CHANNELS 3 Zrotation Xrotation Yrotation
											JOINT Model13
											{
												OFFSET 16.7317 0 0
												CHANNELS 3 Zrotation Xrotation Yrotation
												JOINT Model14
												{
													OFFSET 11.8292 0 0
													CHANNELS 3 Zrotation Xrotation Yrotation
													JOINT Model15
													{
														OFFSET 4.82751 -3.73566 -0.836517
														CHANNELS 3 Zrotation Xrotation Yrotation
														JOINT Model16
														{
															OFFSET 3.75311 -0.0582924 -0.0186462
															CHANNELS 3 Zrotation Xrotation Yrotation
															JOINT Model17
															{
																OFFSET 2.88689 0.0192337 0.0148029
																CHANNELS 3 Zrotation Xrotation Yrotation
																End Site
																{
																	OFFSET 0 0 0
																}
															}
														}
													}
													JOINT Model18
													{
														OFFSET 9.72197 -3.06458 0.238768
														CHANNELS 3 Zrotation Xrotation Yrotation
														JOINT Model19
														{
															OFFSET 4.61131 0 0
															CHANNELS 3 Zrotation Xrotation Yrotation
															JOINT Model20
															{
																OFFSET 2.8969 -1.14441e-005 0
																CHANNELS 3 Zrotation Xrotation Yrotation
																End Site
																{
																	OFFSET 0 0 0
																}
															}
														}
													}
													JOINT Model21
													{
														OFFSET 9.54431 -0.745064 0.588938
														CHANNELS 3 Zrotation Xrotation Yrotation
														JOINT Model22
														{
															OFFSET 5.33978 0 0
															CHANNELS 3 Zrotation Xrotation Yrotation
															JOINT Model23
															{
																OFFSET 3.03619 1.14441e-005 0
																CHANNELS 3 Zrotation Xrotation Yrotation
																End Site
																{
																	OFFSET 0 0 0
																}
															}
														}
													}
													JOINT Model24
													{
														OFFSET 9.47758 1.51286 0.485121
														CHANNELS 3 Zrotation Xrotation Yrotation
														JOINT Model25
														{
															OFFSET 4.96136 1.14441e-005 0
															CHANNELS 3 Zrotation Xrotation Yrotation
															JOINT Model26
															{
																OFFSET 2.51965 0 0
																CHANNELS 3 Zrotation Xrotation Yrotation
																End Site
																{
																	OFFSET 0 0 0
																}
															}
														}
													}
													JOINT Model27
													{
														OFFSET 9.34247 3.34117 -0.239281
														CHANNELS 3 Zrotation Xrotation Yrotation
														JOINT Model28
														{
															OFFSET 3.28259 2.67029e-005 0
															CHANNELS 3 Zrotation Xrotation Yrotation
															JOINT Model29
															{
																OFFSET 2.1292 0 0
																CHANNELS 3 Zrotation Xrotation Yrotation
																End Site
																{
																	OFFSET 0 0 0
																}
															}
														}
													}
												}
											}
										}
									}
								}
							}
						}
					}
					JOINT Model30
					{
						OFFSET 10.8223 0.4179 -3.51107
						CHANNELS 3 Zrotation Xrotation Yrotation
						JOINT Model31
						{
							OFFSET 6.07944 0 0
							CHANNELS 3 Zrotation Xrotation Yrotation
							JOINT Model32
							{
								OFFSET 0.27742 -10.39 0.0512447
								CHANNELS 3 Zrotation Xrotation Yrotation
								JOINT Model33
								{
									OFFSET 3.4391 0.282043 -1.86678
									CHANNELS 3 Zrotation Xrotation Yrotation
									JOINT Model34
									{
										OFFSET -13.0269 0 0
										CHANNELS 3 Zrotation Xrotation Yrotation
										JOINT Model35
										{
											OFFSET -10.8866 0 0
											CHANNELS 3 Zrotation Xrotation Yrotation
											JOINT Model36
											{
												OFFSET -16.7317 0 0
												CHANNELS 3 Zrotation Xrotation Yrotation
												JOINT Model37
												{
													OFFSET -11.8292 0 0
													CHANNELS 3 Zrotation Xrotation Yrotation
													JOINT Model38
													{
														OFFSET -4.82751 3.73566 0.836516
														CHANNELS 3 Zrotation Xrotation Yrotation
														JOINT Model39
														{
															OFFSET -3.75311 0.0582848 0.0186434
															CHANNELS 3 Zrotation Xrotation Yrotation
															JOINT Model40
															{
																OFFSET -2.88687 -0.0192375 -0.014802
																CHANNELS 3 Zrotation Xrotation Yrotation
																End Site
																{
																	OFFSET 0 0 0
																}
															}
														}
													}
													JOINT Model41
													{
														OFFSET -9.72198 3.06459 -0.23877
														CHANNELS 3 Zrotation Xrotation Yrotation
														JOINT Model42
														{
															OFFSET -4.6113 0 0
															CHANNELS 3 Zrotation Xrotation Yrotation
															JOINT Model43
															{
																OFFSET -2.89691 0 0
																CHANNELS 3 Zrotation Xrotation Yrotation
																End Site
																{
																	OFFSET 0 0 0
																}
															}
														}
													}
													JOINT Model44
													{
														OFFSET -9.54431 0.745064 -0.588939
														CHANNELS 3 Zrotation Xrotation Yrotation
														JOINT Model45
														{
															OFFSET -5.33978 0 0
															CHANNELS 3 Zrotation Xrotation Yrotation
															JOINT Model46
															{
																OFFSET -3.03619 -1.52588e-005 0
																CHANNELS 3 Zrotation Xrotation Yrotation
																End Site
																{
																	OFFSET 0 0 0
																}
															}
														}
													}
													JOINT Model47
													{
														OFFSET -9.4776 -1.51286 -0.485122
														CHANNELS 3 Zrotation Xrotation Yrotation
														JOINT Model48
														{
															OFFSET -4.96136 -1.52588e-005 0
															CHANNELS 3 Zrotation Xrotation Yrotation
															JOINT Model49
															{
																OFFSET -2.51965 0 0
																CHANNELS 3 Zrotation Xrotation Yrotation
																End Site
																{
																	OFFSET 0 0 0
																}
															}
														}
													}
													JOINT Model50
													{
														OFFSET -9.34247 -3.34118 0.239278
														CHANNELS 3 Zrotation Xrotation Yrotation
														JOINT Model51
														{
															OFFSET -3.28259 -1.90735e-005 0
															CHANNELS 3 Zrotation Xrotation Yrotation
															JOINT Model52
															{
																OFFSET -2.12921 0 0
																CHANNELS 3 Zrotation Xrotation Yrotation
																End Site
																{
																	OFFSET 0 0 0
																}
															}
														}
													}
												}
											}
										}
									}
								}
							}
						}
					}
				}
			}
		}
	}
	JOINT Model53
	{
		OFFSET 4.38025 -2.14632 -1.11516
		CHANNELS 3 Zrotation Xrotation Yrotation
		JOINT Model54
		{
			OFFSET 0 0 4.94999
			CHANNELS 3 Zrotation Xrotation Yrotation
			JOINT Model55
			{
				OFFSET 18.5642 0 0
				CHANNELS 3 Zrotation Xrotation Yrotation
				JOINT Model56
				{
					OFFSET 21.2884 0 1.14441e-005
					CHANNELS 3 Zrotation Xrotation Yrotation
					JOINT Model57
					{
						OFFSET 30.261 0 0
						CHANNELS 3 Zrotation Xrotation Yrotation
						JOINT Model58
						{
							OFFSET 11.7259 0 0
							CHANNELS 3 Zrotation Xrotation Yrotation
							JOINT Model59
							{
								OFFSET 10.682 0 0
								CHANNELS 3 Zrotation Xrotation Yrotation
								End Site
								{
									OFFSET 0 0 0
								}
							}
						}
					}
				}
			}
		}
	}
	JOINT Model60
	{
		OFFSET -4.38025 -2.14632 -1.11516
		CHANNELS 3 Zrotation Xrotation Yrotation
		JOINT Model61
		{
			OFFSET 0 0 -4.94999
			CHANNELS 3 Zrotation Xrotation Yrotation
			JOINT Model62
			{
				OFFSET -18.5642 0 0
				CHANNELS 3 Zrotation Xrotation Yrotation
				JOINT Model63
				{
					OFFSET -21.2884 0 -1.14441e-005
					CHANNELS 3 Zrotation Xrotation Yrotation
					JOINT Model64
					{
						OFFSET -30.261 0 0
						CHANNELS 3 Zrotation Xrotation Yrotation
						JOINT Model65
						{
							OFFSET -11.7259 0 0
							CHANNELS 3 Zrotation Xrotation Yrotation
							JOINT Model66
							{
								OFFSET -10.682 0 0
								CHANNELS 3 Zrotation Xrotation Yrotation
								End Site
								{
									OFFSET 0 0 0
								}
							}
						}
					}
				}
			}
		}
	}
}
MOTION
Frames: 6
Frame Time: 0.033333
-536.065 96.7839 31.0838 121.805 8.76764 86.3642 -180 4.29621e-031 -90 8.29122 -1.64099 -1.13911 16.5593 -3.42931 -2.03079 16.5593 -3.4289 -2.03092 51.4141 10.1638 14.9184 -73.1948 9.53496 -1.36689 120.092 75.5343 58.4939 4.31471 12.6859 2.96534 -167.277 84.4999 48.8109 154.763 -5.54423 25.5187 6.02195e-006 10.2895 3.06198e-005 -63.7482 -3.26598 0.547355 1.49423e-006 -5.5622 1.30788e-006 -14.5625 1.1911 -9.24589 -72.0648 39.0385 39.3397 33.3638 2.10362 14.835 0.588947 0.308273 6.35287 -99.6409 81.413 100.35 -0.018141 2.78236e-005 -0.117315 -0.124139 0.00241118 -0.799296 -79.8382 79.5773 80.5374 -0.00022581 -0.000220874 2.20975e-005 -0.000956271 0.00012296 -2.74522e-005 -66.7416 80.4058 67.2171 -0.000437169 1.59908e-005 -2.74157e-005 -0.000136654 -0.00010923 -5.47703e-005 -6.42159 81.2158 8.01779 -0.000218609 1.69344e-005 0.000212054 0.000901526 -0.000184766 -0.000218683 -59.9282 75.5373 58.5147 -2.05648 2.55951 1.50771 -167.277 84.4999 48.8109 178.286 -16.9987 -1.40533 7.97644e-006 -1.15107 2.78901e-005 -89.7412 4.05735 0.610479 -7.01135e-006 5.65735 3.48944e-006 9.93491 -2.81977 -31.5843 -72.0648 39.0385 39.3397 33.3638 2.10361 14.835 0.588946 0.308273 6.35287 -99.6409 81.413 100.35 -0.0181409 3.00645e-005 -0.117315 -0.124139 0.00241111 -0.799296 -79.8382 79.5773 80.5374 -0.000260633 -0.000218579 2.35931e-005 -0.000956209 0.000122979 -2.72899e-005 -66.7416 80.4058 67.2171 -0.000437118 1.48679e-005 -2.72986e-005 -0.000136585 -0.000109301 -5.46115e-005 -6.42159 81.2158 8.01779 -0.000218551 1.95637e-005 0.000212319 0.000901604 -0.000191266 -0.000218536 0.000811311 0.56661 89.91 -65.3136 3.88395 -24.3719 2.25932e-006 4.41082 -1.06175e-007 93.0728 3.08106 -0.0082131 3.12291e-008 4.49931 4.92637e-009 -43.6238 1.593 -1.30229 -35.4947 1.35432e-006 3.22671e-007 -180 -0.566579 -90.09 -71.1227 2.70682 -12.401 3.82011e-007 2.45983 1.01173e-009 92.7878 2.62464 -0.0079422 4.98854e-007 3.81411 3.02066e-007 -36.6951 0.709475 -0.310712 -35.4657 -0.0156471 0.00319444 
-535.863 96.3277 31.157 121.866 8.47419 86.5165 -180 4.29621e-031 -90 8.44791 -1.67347 -1.1439 16.8725 -3.49707 -2.0307 16.8725 -3.49665 -2.03083 50.5576 9.75815 14.329 -75.6829 8.95315 -0.653658 120.092 75.5343 58.4939 3.14018 11.8775 3.0737 -167.277 84.4999 48.8109 155.923 -5.00947 24.0971 5.62914e-006 11.011 3.06924e-005 -66.2797 -2.4826 0.558132 1.46711e-006 -4.37749 1.30553e-006 -14.7228 1.41474 -10.9297 -72.0648 39.0385 39.3397 33.3638 2.10362 14.835 0.588947 0.308273 6.35287 -99.6409 81.413 100.35 -0.018141 2.78236e-005 -0.117315 -0.124139 0.00241118 -0.799296 -79.8382 79.5773 80.5374 -0.00022581 -0.000220874 2.20975e-005 -0.000956271 0.00012296 -2.74522e-005 -66.7416 80.4058 67.2171 -0.000437169 1.59908e-005 -2.74157e-005 -0.000136654 -0.00010923 -5.47703e-005 -6.42159 81.2158 8.01779 -0.000218609 1.69344e-005 0.000212054 0.000901526 -0.000184766 -0.000218683 -59.9282 75.5373 58.5147 -1.59324 3.50572 1.72379 -167.277 84.4999 48.8109 176.841 -17.9534 -3.05235 8.45131e-006 -2.12598 2.79037e-005 -87.956 1.98887 0.609046 -6.82073e-006 2.52888 3.47583e-006 10.5413 -2.44677 -26.1003 -72.0648 39.0385 39.3397 33.3638 2.10361 14.835 0.588946 0.308273 6.35287 -99.6409 81.413 100.35 -0.0181409 3.00645e-005 -0.117315 -0.124139 0.00241111 -0.799296 -79.8382 79.5773 80.5374 -0.000260633 -0.000218579 2.35931e-005 -0.000956209 0.000122979 -2.72899e-005 -66.7416 80.4058 67.2171 -0.000437118 1.48679e-005 -2.72986e-005 -0.000136585 -0.000109301 -5.46115e-005 -6.42159 81.2158 8.01779 -0.000218551 1.95637e-005 0.000212319 0.000901604 -0.000191266 -0.000218536 0.000811311 0.56661 89.91 -64.7724 3.82723 -24.5294 2.25947e-006 4.49058 -1.06186e-007 94.2094 2.88799 -0.00821166 3.1254e-008 4.20991 4.92448e-009 -49.2591 3.00819 -2.52844 -35.4947 1.22543e-006 2.6937e-007 -180 -0.566579 -90.09 -68.3863 2.27877 -12.2742 3.82014e-007 2.27679 1.0116e-009 90.9154 3.20534 -0.0079463 4.94248e-007 4.68502 3.02408e-007 -32.447 -0.156962 0.79067 -35.6337 0.186501 -0.0220403 
-535.749 95.9924 31.2299 121.737 8.48851 86.5479 -180 4.29621e-031 -90 8.49369 -1.64464 -1.17109 16.9635 -3.44443 -2.08759 16.9635 -3.44401 -2.08772 50.6946 9.34382 14.6573 -76.2136 7.90508 -0.0170697 120.092 75.5343 58.4939 2.36165 11.1068 3.07373 -167.277 84.4999 48.8109 157.179 -4.68771 23.7863 5.47918e-006 11.2856 3.07214e-005 -69.2555 -2.56035 0.570246 1.46945e-006 -4.47983 1.30571e-006 -14.2551 1.31661 -10.4983 -72.0648 39.0385 39.3397 33.3638 2.10362 14.835 0.588947 0.308273 6.35287 -99.6409 81.413 100.35 -0.018141 2.78236e-005 -0.117315 -0.124139 0.00241118 -0.799296 -79.8382 79.5773 80.5374 -0.00022581 -0.000220874 2.20975e-005 -0.000956271 0.00012296 -2.74522e-005 -66.7416 80.4058 67.2171 -0.000437169 1.59908e-005 -2.74157e-005 -0.000136654 -0.00010923 -5.47703e-005 -6.42159 81.2158 8.01779 -0.000218609 1.69344e-005 0.000212054 0.000901526 -0.000184766 -0.000218683 -59.9282 75.5373 58.5147 -1.85275 3.50618 1.7761 -167.277 84.4999 48.8109 175.791 -18.6426 -4.27021 8.80607e-006 -2.85355 2.79191e-005 -87.872 -1.19702 0.608756 -6.53088e-006 -2.25088 3.47513e-006 11.4458 -2.08664 -20.6017 -72.0648 39.0385 39.3397 33.3638 2.10361 14.835 0.588946 0.308273 6.35287 -99.6409 81.413 100.35 -0.0181409 3.00645e-005 -0.117315 -0.124139 0.00241111 -0.799296 -79.8382 79.5773 80.5374 -0.000260633 -0.000218579 2.35931e-005 -0.000956209 0.000122979 -2.72899e-005 -66.7416 80.4058 67.2171 -0.000437118 1.48679e-005 -2.72986e-005 -0.000136585 -0.000109301 -5.46115e-005 -6.42159 81.2158 8.01779 -0.000218551 1.95637e-005 0.000212319 0.000901604 -0.000191266 -0.000218536 0.000811311 0.56661 89.91 -65.0897 3.98735 -24.286 2.25975e-006 4.64339 -1.06209e-007 94.6625 2.77262 -0.00821084 3.12689e-008 4.03694 4.92341e-009 -49.8933 3.35281 -2.80971 -35.4947 1.02063e-006 2.02802e-007 -180 -0.566579 -90.09 -65.8885 1.88476 -12.4282 3.82017e-007 2.08026 1.01147e-009 89.859 3.84526 -0.00795177 4.89157e-007 5.64484 3.02866e-007 -33.8074 -0.480468 1.03433 -36.8578 -0.270294 -0.089126 
-535.729 95.9738 31.3266 121.523 8.63035 86.3704 -180 4.29621e-031 -90 8.47325 -1.51796 -1.24283 16.9214 -3.20265 -2.24954 16.9214 -3.20223 -2.24966 51.2237 9.20797 16.3074 -74.0374 7.39027 -0.311763 120.092 75.5343 58.4939 2.1363 11.0926 3.13018 -167.277 84.4999 48.8109 158.776 -4.37613 24.1422 5.42862e-006 11.378 3.07313e-005 -71.7239 -2.416 0.578942 1.46415e-006 -4.24801 1.30531e-006 -14.4162 1.24558 -9.82933 -72.0648 39.0385 39.3397 33.3638 2.10362 14.835 0.588947 0.308273 6.35287 -99.6409 81.413 100.35 -0.018141 2.78236e-005 -0.117315 -0.124139 0.00241118 -0.799296 -79.8382 79.5773 80.5374 -0.00022581 -0.000220874 2.20975e-005 -0.000956271 0.00012296 -2.74522e-005 -66.7416 80.4058 67.2171 -0.000437169 1.59908e-005 -2.74157e-005 -0.000136654 -0.00010923 -5.47703e-005 -6.42159 81.2158 8.01779 -0.000218609 1.69344e-005 0.000212054 0.000901526 -0.000184766 -0.000218683 -59.9282 75.5373 58.5147 -2.22431 2.77786 1.6137 -167.277 84.4999 48.8109 176.427 -18.4909 -3.80883 8.73137e-006 -2.70041 2.79155e-005 -88.9735 -2.11682 0.609354 -6.448e-006 -3.61479 3.47937e-006 11.324 -2.01386 -20.1398 -72.0648 39.0385 39.3397 33.3638 2.10361 14.835 0.588946 0.308273 6.35287 -99.6409 81.413 100.35 -0.0181409 3.00645e-005 -0.117315 -0.124139 0.00241111 -0.799296 -79.8382 79.5773 80.5374 -0.000260633 -0.000218579 2.35931e-005 -0.000956209 0.000122979 -2.72899e-005 -66.7416 80.4058 67.2171 -0.000437118 1.48679e-005 -2.72986e-005 -0.000136585 -0.000109301 -5.46115e-005 -6.42159 81.2158 8.01779 -0.000218551 1.95637e-005 0.000212319 0.000901604 -0.000191266 -0.000218536 0.000811311 0.56661 89.91 -66.0793 4.40028 -23.6624 2.2604e-006 4.99226 -1.06264e-007 94.2207 2.73127 -0.00821055 3.12743e-008 3.97482 4.92303e-009 -44.803 1.92259 -1.59238 -35.4697 0.0710518 -0.00334329 -180 -0.566579 -90.09 -65.0667 1.57311 -12.8829 3.82024e-007 1.71721 1.01125e-009 90.3646 3.97181 -0.00795297 4.88149e-007 5.83468 3.02967e-007 -39.6756 1.06471 -0.724619 -36.5673 -0.426763 -0.0571837 
-535.729 96.1429 31.3909 121.314 8.65334 86.0107 -180 4.29621e-031 -90 8.46842 -1.42281 -1.30873 16.911 -3.02302 -2.39475 16.911 -3.02261 -2.39488 52.221 9.14011 17.2179 -71.0355 7.02791 -0.71524 120.092 75.5343 58.4939 2.24252 10.9432 3.05907 -167.277 84.4999 48.8109 160.239 -4.16604 24.9118 5.49634e-006 11.2542 3.07181e-005 -74.2179 -2.52824 0.58675 1.46758e-006 -4.398 1.30557e-006 -14.495 1.1715 -9.18843 -72.0648 39.0385 39.3397 33.3638 2.10362 14.835 0.588947 0.308273 6.35287 -99.6409 81.413 100.35 -0.018141 2.78236e-005 -0.117315 -0.124139 0.00241118 -0.799296 -79.8382 79.5773 80.5374 -0.00022581 -0.000220874 2.20975e-005 -0.000956271 0.00012296 -2.74522e-005 -66.7416 80.4058 67.2171 -0.000437169 1.59908e-005 -2.74157e-005 -0.000136654 -0.00010923 -5.47703e-005 -6.42159 81.2158 8.01779 -0.000218609 1.69344e-005 0.000212054 0.000901526 -0.000184766 -0.000218683 -59.9282 75.5373 58.5147 -2.05167 2.42799 1.46506 -167.277 84.4999 48.8109 178.397 -17.829 -2.29847 8.39344e-006 -2.00723 2.79016e-005 -90.4137 -0.0414612 0.609007 -6.63823e-006 -0.48074 3.47257e-006 10.5517 -2.37583 -25.3153 -72.0648 39.0385 39.3397 33.3638 2.10361 14.835 0.588946 0.308273 6.35287 -99.6409 81.413 100.35 -0.0181409 3.00645e-005 -0.117315 -0.124139 0.00241111 -0.799296 -79.8382 79.5773 80.5374 -0.000260633 -0.000218579 2.35931e-005 -0.000956209 0.000122979 -2.72899e-005 -66.7416 80.4058 67.2171 -0.000437118 1.48679e-005 -2.72986e-005 -0.000136585 -0.000109301 -5.46115e-005 -6.42159 81.2158 8.01779 -0.000218551 1.95637e-005 0.000212319 0.000901604 -0.000191266 -0.000218536 0.000811311 0.56661 89.91 -67.2881 4.80063 -22.9055 2.26095e-006 5.28332 -1.06312e-007 93.5163 2.77096 -0.00821083 3.12692e-008 4.03423 4.92339e-009 -37.4485 0.801622 -0.429901 -35.664 -0.481011 0.0239852 -180 -0.566579 -90.09 -65.3311 1.57134 -13.2333 3.82025e-007 1.64813 1.01122e-009 90.6241 3.84423 -0.00795176 4.89165e-007 5.64333 3.02865e-007 -40.9512 1.83683 -1.48176 -35.3724 0.0456796 0.00670845 
-535.726 96.3273 31.3775 121.298 8.8416 85.7106 -180 4.29621e-031 -90 8.53227 -1.43107 -1.27257 17.0396 -3.03528 -2.31978 17.0396 -3.03487 -2.31991 53.8047 9.14347 17.2737 -68.2561 6.98382 -1.36789 120.092 75.5343 58.4939 2.56189 10.3393 2.80456 -167.277 84.4999 48.8109 161.37 -3.99344 25.7657 5.58058e-006 11.1 3.07017e-005 -77.0802 -2.62808 0.594327 1.47044e-006 -4.52313 1.30579e-006 -14.1045 1.16767 -9.42284 -72.0648 39.0385 39.3397 33.3638 2.10362 14.835 0.588947 0.308273 6.35287 -99.6409 81.413 100.35 -0.018141 2.78236e-005 -0.117315 -0.124139 0.00241118 -0.799296 -79.8382 79.5773 80.5374 -0.00022581 -0.000220874 2.20975e-005 -0.000956271 0.00012296 -2.74522e-005 -66.7416 80.4058 67.2171 -0.000437169 1.59908e-005 -2.74157e-005 -0.000136654 -0.00010923 -5.47703e-005 -6.42159 81.2158 8.01779 -0.000218609 1.69344e-005 0.000212054 0.000901526 -0.000184766 -0.000218683 -59.9282 75.5373 58.5147 -1.52933 2.22613 1.29755 -167.277 84.4999 48.8109 -179.905 -17.1708 -1.00167 8.06605e-006 -1.33511 2.7892e-005 -91.4917 2.84433 0.609717 -6.90191e-006 3.86411 3.48036e-006 10.5196 -2.99359 -31.5986 -72.0648 39.0385 39.3397 33.3638 2.10361 14.835 0.588946 0.308273 6.35287 -99.6409 81.413 100.35 -0.0181409 3.00645e-005 -0.117315 -0.124139 0.00241111 -0.799296 -79.8382 79.5773 80.5374 -0.000260633 -0.000218579 2.35931e-005 -0.000956209 0.000122979 -2.72899e-005 -66.7416 80.4058 67.2171 -0.000437118 1.48679e-005 -2.72986e-005 -0.000136585 -0.000109301 -5.46115e-005 -6.42159 81.2158 8.01779 -0.000218551 1.95637e-005 0.000212319 0.000901604 -0.000191266 -0.000218536 0.000811311 0.56661 89.91 -68.4225 5.10779 -22.2075 2.2613e-006 5.47467 -1.06346e-007 92.9108 3.01156 -0.00821257 3.12381e-008 4.39504 4.92567e-009 -30.81 0.447203 0.22945 -36.1538 -1.92979 0.0813964 -180 -0.566579 -90.09 -65.5376 1.83128 -13.5141 3.82019e-007 1.9837 1.01141e-009 90.446 3.91658 -0.00795244 4.88589e-007 5.75184 3.02922e-007 -39.5097 0.762265 -0.454428 -35.4947 1.03723e-007 -6.77281e-008 
